<svg data-v-423bf9ae="" xmlns="http://www.w3.org/2000/svg" viewBox="0 0 819 477" class="iconLeft"><!----><!----><!----><g data-v-423bf9ae="" id="4816e504-00cf-4fad-b9cf-69072970a99b" fill="white" transform="matrix(5.6980053264473165,0,0,5.6980053264473165,495.0381839028819,185.3149572149396)"><path d="M3.98 14.52C5.96 14.52 7.18 13.47 7.18 11.69C7.18 10.35 6.50 9.44 4.55 9.02L3.68 8.83C2.46 8.58 1.68 8.13 1.68 6.97C1.68 5.77 2.55 5.15 3.95 5.15C5.12 5.15 5.91 5.60 6.45 6.37L7.08 5.91C6.44 4.97 5.45 4.41 3.99 4.41C2.11 4.41 0.85 5.29 0.85 7.00C0.85 8.36 1.67 9.24 3.51 9.62L4.38 9.80C5.63 10.07 6.36 10.53 6.36 11.73C6.36 13.02 5.52 13.78 4.00 13.78C2.73 13.78 1.90 13.24 1.22 12.33L0.59 12.85C1.34 13.86 2.38 14.52 3.98 14.52ZM11.97 14.35L11.97 13.65L10.46 13.65L10.46 7.88L12.08 7.88L12.08 7.18L10.46 7.18L10.46 5.18L9.73 5.18L9.73 6.64C9.73 7.04 9.62 7.18 9.23 7.18L8.41 7.18L8.41 7.88L9.66 7.88L9.66 13.47C9.66 14 9.97 14.35 10.54 14.35ZM18.48 14.35L19.28 14.35L19.28 7.18L18.48 7.18L18.48 12.21C18.48 13.29 17.54 13.80 16.55 13.80C15.36 13.80 14.70 13.10 14.70 11.63L14.70 7.18L13.90 7.18L13.90 11.79C13.90 13.54 14.81 14.52 16.34 14.52C17.57 14.52 18.16 13.89 18.42 13.22L18.48 13.22ZM26.52 14.35L27.31 14.35L27.31 3.99L26.52 3.99L26.52 8.33L26.47 8.33C26.12 7.53 25.38 7.01 24.29 7.01C22.46 7.01 21.34 8.40 21.34 10.77C21.34 13.13 22.46 14.52 24.29 14.52C25.38 14.52 26.10 14 26.47 13.20L26.52 13.20ZM24.47 13.80C23.04 13.80 22.19 12.81 22.19 11.27L22.19 10.26C22.19 8.72 23.04 7.73 24.47 7.73C25.58 7.73 26.52 8.39 26.52 9.32L26.52 12.17C26.52 13.17 25.58 13.80 24.47 13.80ZM32.48 14.52C33.84 14.52 34.83 13.82 35.28 12.77L34.69 12.38C34.30 13.31 33.54 13.82 32.52 13.82C31.05 13.82 30.18 12.77 30.18 11.27L30.18 10.92L35.49 10.92L35.49 10.54C35.49 8.44 34.30 7.01 32.47 7.01C30.56 7.01 29.34 8.41 29.34 10.77C29.34 13.12 30.56 14.52 32.48 14.52ZM32.47 7.69C33.75 7.69 34.62 8.68 34.62 10.19L34.62 10.30L30.18 10.30L30.18 10.23C30.18 8.72 31.08 7.69 32.47 7.69ZM38.32 14.35L38.32 9.31C38.32 8.25 39.26 7.73 40.26 7.73C41.45 7.73 42.10 8.43 42.10 9.88L42.10 14.35L42.90 14.35L42.90 9.74C42.90 7.99 42 7.01 40.47 7.01C39.33 7.01 38.68 7.57 38.36 8.32L38.32 8.32L38.32 7.18L37.52 7.18L37.52 14.35ZM48.06 14.35L48.06 13.65L46.55 13.65L46.55 7.88L48.17 7.88L48.17 7.18L46.55 7.18L46.55 5.18L45.82 5.18L45.82 6.64C45.82 7.04 45.71 7.18 45.32 7.18L44.51 7.18L44.51 7.88L45.75 7.88L45.75 13.47C45.75 14 46.06 14.35 46.63 14.35ZM49.21 14.35L50.18 14.35L52.96 10.02L52.99 10.02L55.76 14.35L56.77 14.35L53.51 9.34L56.67 4.58L55.71 4.58L53.00 8.71L52.98 8.71L50.30 4.58L49.31 4.58L52.44 9.38Z"></path></g><!----><g data-v-423bf9ae="" id="5326cc5b-cb07-43cf-b5ad-947a34c5703f" transform="matrix(2.3,0,0,2.3,0.8000000000000114,0.950000000000017)" stroke="none" fill="white"><path d="M165 0l-61 77L43 0H0l83 104L0 207h43l61-76 61 76h43l-83-103L208 0z"></path></g><!----></svg>